<svg width="196" height="32" viewBox="0 0 196 32" fill="none" xmlns="http://www.w3.org/2000/svg">
<path d="M7.32253 7.488C13.0985 7.488 15.9865 10.24 15.9865 15.744C15.9865 21.248 13.0985 24 7.32253 24H0.170531V7.488H7.32253ZM5.47453 20.04H7.22653C9.45053 20.04 10.5625 18.848 10.5625 16.464V15.024C10.5625 12.64 9.45053 11.448 7.22653 11.448H5.47453V20.04ZM19.0902 24V7.488H24.3942V24H19.0902ZM36.3863 7.2C39.2343 7.2 41.4343 7.928 42.9863 9.384C44.5383 10.84 45.3143 12.96 45.3143 15.744C45.3143 18.528 44.5383 20.648 42.9863 22.104C41.4343 23.56 39.2343 24.288 36.3863 24.288C33.5383 24.288 31.3383 23.568 29.7863 22.128C28.2503 20.672 27.4823 18.544 27.4823 15.744C27.4823 12.944 28.2503 10.824 29.7863 9.384C31.3383 7.928 33.5383 7.2 36.3863 7.2ZM36.3863 11.16C35.2503 11.16 34.3863 11.504 33.7943 12.192C33.2023 12.88 32.9063 13.808 32.9063 14.976V16.512C32.9063 17.68 33.2023 18.608 33.7943 19.296C34.3863 19.984 35.2503 20.328 36.3863 20.328C37.5223 20.328 38.3863 19.984 38.9783 19.296C39.5863 18.608 39.8903 17.68 39.8903 16.512V14.976C39.8903 13.808 39.5863 12.88 38.9783 12.192C38.3863 11.504 37.5223 11.16 36.3863 11.16ZM56.4745 7.2C58.0585 7.2 59.4825 7.44 60.7465 7.92C62.0105 8.4 63.0105 9.112 63.7465 10.056C64.4985 10.984 64.8745 12.12 64.8745 13.464H59.8105C59.8105 12.776 59.5065 12.224 58.8985 11.808C58.2905 11.376 57.5545 11.16 56.6905 11.16C55.4425 11.16 54.4985 11.496 53.8585 12.168C53.2185 12.824 52.8985 13.76 52.8985 14.976V16.512C52.8985 17.728 53.2185 18.672 53.8585 19.344C54.4985 20 55.4425 20.328 56.6905 20.328C57.5545 20.328 58.2905 20.128 58.8985 19.728C59.5065 19.312 59.8105 18.784 59.8105 18.144H56.0665V14.784H64.8745V24H62.1385L61.6105 22.368C60.1065 23.648 58.1385 24.288 55.7065 24.288C52.9705 24.288 50.9145 23.576 49.5385 22.152C48.1625 20.712 47.4745 18.576 47.4745 15.744C47.4745 12.944 48.2505 10.824 49.8025 9.384C51.3705 7.928 53.5945 7.2 56.4745 7.2ZM76.3707 7.2C79.2187 7.2 81.4187 7.928 82.9707 9.384C84.5227 10.84 85.2987 12.96 85.2987 15.744C85.2987 18.528 84.5227 20.648 82.9707 22.104C81.4187 23.56 79.2187 24.288 76.3707 24.288C73.5227 24.288 71.3227 23.568 69.7707 22.128C68.2347 20.672 67.4667 18.544 67.4667 15.744C67.4667 12.944 68.2347 10.824 69.7707 9.384C71.3227 7.928 73.5227 7.2 76.3707 7.2ZM76.3707 11.16C75.2347 11.16 74.3707 11.504 73.7787 12.192C73.1867 12.88 72.8907 13.808 72.8907 14.976V16.512C72.8907 17.68 73.1867 18.608 73.7787 19.296C74.3707 19.984 75.2347 20.328 76.3707 20.328C77.5067 20.328 78.3707 19.984 78.9627 19.296C79.5707 18.608 79.8747 17.68 79.8747 16.512V14.976C79.8747 13.808 79.5707 12.88 78.9627 12.192C78.3707 11.504 77.5067 11.16 76.3707 11.16ZM100.164 24L98.0285 13.944H97.9325L95.7965 24H89.9645L86.1005 7.488H91.6205L93.5165 16.848H93.6125L95.4845 7.488H100.716L102.708 16.848H102.804L104.58 7.488H109.86L105.996 24H100.164ZM131.557 24L124.621 15.984V24H119.749V7.488H124.381L131.317 15.624V7.488H136.189V24H131.557ZM139.741 7.488H154.021V11.448H145.045V13.728H152.725V17.52H145.045V20.04H154.189V24H139.741V7.488ZM169.469 24L167.333 13.944H167.237L165.101 24H159.269L155.405 7.488H160.925L162.821 16.848H162.917L164.789 7.488H170.021L172.013 16.848H172.109L173.885 7.488H179.165L175.301 24H169.469ZM187.997 7.2C190.109 7.2 191.845 7.632 193.205 8.496C194.565 9.344 195.261 10.608 195.293 12.288V12.576H190.325V12.48C190.325 12 190.149 11.6 189.797 11.28C189.445 10.96 188.909 10.8 188.189 10.8C187.485 10.8 186.941 10.904 186.557 11.112C186.189 11.32 186.005 11.576 186.005 11.88C186.005 12.312 186.261 12.632 186.773 12.84C187.285 13.048 188.109 13.264 189.245 13.488C190.573 13.76 191.661 14.048 192.509 14.352C193.373 14.64 194.125 15.12 194.765 15.792C195.405 16.464 195.733 17.376 195.749 18.528C195.749 20.48 195.085 21.928 193.757 22.872C192.445 23.816 190.685 24.288 188.477 24.288C185.901 24.288 183.893 23.856 182.453 22.992C181.029 22.128 180.317 20.6 180.317 18.408H185.333C185.333 19.24 185.549 19.8 185.981 20.088C186.413 20.36 187.085 20.496 187.997 20.496C188.669 20.496 189.221 20.424 189.653 20.28C190.101 20.136 190.325 19.84 190.325 19.392C190.325 18.992 190.077 18.696 189.581 18.504C189.101 18.296 188.309 18.08 187.205 17.856C185.861 17.568 184.749 17.272 183.869 16.968C182.989 16.648 182.221 16.128 181.565 15.408C180.909 14.688 180.581 13.712 180.581 12.48C180.581 10.672 181.277 9.344 182.669 8.496C184.077 7.632 185.853 7.2 187.997 7.2Z" fill="#991B1B"/>
</svg>
