<svg width="229" height="32" viewBox="0 0 229 32" fill="none" xmlns="http://www.w3.org/2000/svg">
<path d="M8.12722 7.488C13.9032 7.488 16.7912 10.24 16.7912 15.744C16.7912 21.248 13.9032 24 8.12722 24H0.975219V7.488H8.12722ZM6.27922 20.04H8.03122C10.2552 20.04 11.3672 18.848 11.3672 16.464V15.024C11.3672 12.64 10.2552 11.448 8.03122 11.448H6.27922V20.04ZM27.9589 7.2C29.5429 7.2 30.9669 7.44 32.2309 7.92C33.4949 8.4 34.4949 9.112 35.2309 10.056C35.9829 10.984 36.3589 12.12 36.3589 13.464H31.2949C31.2949 12.776 30.9909 12.224 30.3829 11.808C29.7749 11.376 29.0389 11.16 28.1749 11.16C26.9269 11.16 25.9829 11.496 25.3429 12.168C24.7029 12.824 24.3829 13.76 24.3829 14.976V16.512C24.3829 17.728 24.7029 18.672 25.3429 19.344C25.9829 20 26.9269 20.328 28.1749 20.328C29.0389 20.328 29.7749 20.128 30.3829 19.728C30.9909 19.312 31.2949 18.784 31.2949 18.144H27.5509V14.784H36.3589V24H33.6229L33.0949 22.368C31.5909 23.648 29.6229 24.288 27.1909 24.288C24.4549 24.288 22.3989 23.576 21.0229 22.152C19.6469 20.712 18.9589 18.576 18.9589 15.744C18.9589 12.944 19.7349 10.824 21.2869 9.384C22.8549 7.928 25.0789 7.2 27.9589 7.2ZM52.0551 24L49.9191 13.944H49.8231L47.6871 24H41.8551L37.9911 7.488H43.5111L45.4071 16.848H45.5031L47.3751 7.488H52.6071L54.5991 16.848H54.6951L56.4711 7.488H61.7511L57.8871 24H52.0551ZM81.1433 11.712V24H75.8393V11.712H70.4153V7.488H86.5433V11.712H81.1433ZM88.9596 7.488H103.24V11.448H94.2636V13.728H101.944V17.52H94.2636V20.04H103.408V24H88.9596V7.488ZM114.152 7.2C116.6 7.2 118.536 7.816 119.96 9.048C121.384 10.264 122.096 12.008 122.096 14.28H117.032C117.032 13.32 116.776 12.56 116.264 12C115.768 11.44 115.056 11.16 114.128 11.16C113.056 11.16 112.264 11.496 111.752 12.168C111.256 12.84 111.008 13.776 111.008 14.976V16.512C111.008 17.696 111.256 18.632 111.752 19.32C112.264 19.992 113.04 20.328 114.08 20.328C115.104 20.328 115.88 20.064 116.408 19.536C116.936 19.008 117.2 18.264 117.2 17.304H122.096C122.096 19.56 121.4 21.288 120.008 22.488C118.632 23.688 116.68 24.288 114.152 24.288C111.336 24.288 109.2 23.568 107.744 22.128C106.304 20.688 105.584 18.56 105.584 15.744C105.584 12.928 106.304 10.8 107.744 9.36C109.2 7.92 111.336 7.2 114.152 7.2ZM136.096 24V17.736H130.264V24H124.96V7.488H130.264V13.512H136.096V7.488H141.4V24H136.096ZM164.752 24L157.816 15.984V24H152.944V7.488H157.576L164.512 15.624V7.488H169.384V24H164.752ZM172.936 7.488H187.216V11.448H178.24V13.728H185.92V17.52H178.24V20.04H187.384V24H172.936V7.488ZM202.664 24L200.528 13.944H200.432L198.296 24H192.464L188.6 7.488H194.12L196.016 16.848H196.112L197.984 7.488H203.216L205.208 16.848H205.304L207.08 7.488H212.36L208.496 24H202.664ZM221.192 7.2C223.304 7.2 225.04 7.632 226.4 8.496C227.76 9.344 228.456 10.608 228.488 12.288V12.576H223.52V12.48C223.52 12 223.344 11.6 222.992 11.28C222.64 10.96 222.104 10.8 221.384 10.8C220.68 10.8 220.136 10.904 219.752 11.112C219.384 11.32 219.2 11.576 219.2 11.88C219.2 12.312 219.456 12.632 219.968 12.84C220.48 13.048 221.304 13.264 222.44 13.488C223.768 13.76 224.856 14.048 225.704 14.352C226.568 14.64 227.32 15.12 227.96 15.792C228.6 16.464 228.928 17.376 228.944 18.528C228.944 20.48 228.28 21.928 226.952 22.872C225.64 23.816 223.88 24.288 221.672 24.288C219.096 24.288 217.088 23.856 215.648 22.992C214.224 22.128 213.512 20.6 213.512 18.408H218.528C218.528 19.24 218.744 19.8 219.176 20.088C219.608 20.36 220.28 20.496 221.192 20.496C221.864 20.496 222.416 20.424 222.848 20.28C223.296 20.136 223.52 19.84 223.52 19.392C223.52 18.992 223.272 18.696 222.776 18.504C222.296 18.296 221.504 18.08 220.4 17.856C219.056 17.568 217.944 17.272 217.064 16.968C216.184 16.648 215.416 16.128 214.76 15.408C214.104 14.688 213.776 13.712 213.776 12.48C213.776 10.672 214.472 9.344 215.864 8.496C217.272 7.632 219.048 7.2 221.192 7.2Z" fill="#991B1B"/>
</svg>
